<svg width="219" height="85" viewBox="0 0 219 85" fill="none" xmlns="http://www.w3.org/2000/svg" filter="drop-shadow(0px 4px 4px rgba(0, 0, 0, 0.25)) drop-shadow(0px 4px 4px rgba(0, 0, 0, 0.25)) drop-shadow(0px 4px 4px rgba(0, 0, 0, 0.25))">
<g filter="url(#filter0_ddddddd_3_182)">
<g filter="url(#filter1_f_3_182)">
<rect x="6" y="6" width="186" height="56" rx="6" fill="white"/>
</g>
<g filter="url(#filter2_d_3_182)">
<path d="M13 17C13 13.6863 15.6863 11 19 11H193C196.314 11 199 13.6863 199 17V59C199 62.3137 196.314 65 193 65H19C15.6863 65 13 62.3137 13 59V17Z" fill="#F0F0F3"/>
</g>
<rect x="15.5" y="13.5" width="181" height="49" rx="5.5" stroke="white"/>
<path d="M59.7 44V30.66H68.12V32.02H61.14V36.62H67.28V38.02H61.14V42.64H68.12V44H59.7ZM82.8811 44H81.1611L71.7811 30.66H73.5011L82.8811 44ZM77.1211 36.24L81.0411 30.66H82.8011L78.0411 37.44L77.1211 36.24ZM77.7011 37.9L73.4211 44H71.6611L76.5211 37.06L77.7011 37.9ZM88.1384 38.9V44H86.6984V30.66H91.4384C92.9318 30.66 94.0718 31.0133 94.8584 31.72C95.6584 32.4267 96.0584 33.4467 96.0584 34.78C96.0584 36.1133 95.6584 37.1333 94.8584 37.84C94.0718 38.5467 92.9318 38.9 91.4384 38.9H88.1384ZM88.1384 37.52H91.2584C92.0051 37.52 92.5984 37.44 93.0384 37.28C93.4918 37.12 93.8318 36.9067 94.0584 36.64C94.2851 36.36 94.4318 36.06 94.4984 35.74C94.5784 35.42 94.6184 35.1 94.6184 34.78C94.6184 34.46 94.5784 34.14 94.4984 33.82C94.4318 33.5 94.2851 33.2067 94.0584 32.94C93.8318 32.66 93.4918 32.44 93.0384 32.28C92.5984 32.12 92.0051 32.04 91.2584 32.04H88.1384V37.52ZM100.764 44V30.66H102.204V42.6H109.024V44H100.764ZM118.513 44.2C117.193 44.2 116.086 43.9467 115.193 43.44C114.313 42.92 113.646 42.1533 113.193 41.14C112.753 40.1267 112.533 38.86 112.533 37.34C112.533 35.0733 113.033 33.3667 114.033 32.22C115.046 31.06 116.539 30.48 118.513 30.48C119.846 30.48 120.953 30.74 121.833 31.26C122.726 31.7667 123.393 32.5267 123.833 33.54C124.286 34.5533 124.513 35.82 124.513 37.34C124.513 39.6067 124.006 41.32 122.993 42.48C121.993 43.6267 120.499 44.2 118.513 44.2ZM118.513 42.84C119.566 42.84 120.426 42.6467 121.093 42.26C121.759 41.8733 122.246 41.2733 122.553 40.46C122.873 39.6467 123.033 38.6067 123.033 37.34C123.033 36.0733 122.873 35.04 122.553 34.24C122.246 33.4267 121.759 32.8267 121.093 32.44C120.426 32.04 119.566 31.84 118.513 31.84C117.473 31.84 116.619 32.04 115.953 32.44C115.286 32.8267 114.793 33.4267 114.473 34.24C114.166 35.04 114.013 36.0733 114.013 37.34C114.013 38.6067 114.166 39.6467 114.473 40.46C114.793 41.2733 115.286 41.8733 115.953 42.26C116.619 42.6467 117.473 42.84 118.513 42.84ZM129.208 44V30.66H134.688C135.994 30.66 136.974 30.9867 137.628 31.64C138.294 32.2933 138.628 33.26 138.628 34.54C138.628 35.3133 138.468 36 138.148 36.6C137.828 37.2 137.381 37.6733 136.808 38.02C136.234 38.3667 135.561 38.54 134.788 38.54L135.388 38.14L139.228 44H137.528L133.568 37.88L134.288 38.62H130.648V44H129.208ZM130.648 37.26H134.028C135.134 37.26 135.934 37.04 136.428 36.6C136.934 36.1467 137.188 35.4933 137.188 34.64C137.188 33.84 137.001 33.2067 136.628 32.74C136.254 32.26 135.554 32.02 134.528 32.02H130.648V37.26ZM143.625 44V30.66H152.045V32.02H145.065V36.62H151.205V38.02H145.065V42.64H152.045V44H143.625Z" fill="#1C325B"/>
</g>
<defs>
<filter id="filter0_ddddddd_3_182" x="2" y="6" width="201" height="67" filterUnits="userSpaceOnUse" color-interpolation-filters="sRGB">






<feGaussianBlur stdDeviation="2"/>
<feComposite in2="hardAlpha" operator="out"/>
<feColorMatrix type="matrix" values="0 0 0 0 0 0 0 0 0 0 0 0 0 0 0 0 0 0 0.25 0"/>

<feBlend mode="normal" in="SourceGraphic" in2="effect7_dropShadow_3_182" result="shape"/>
</filter>
<filter id="filter1_f_3_182" x="0" y="0" width="198" height="68" filterUnits="userSpaceOnUse" color-interpolation-filters="sRGB">
<feFlood flood-opacity="0" result="BackgroundImageFix"/>
<feBlend mode="normal" in="SourceGraphic" in2="BackgroundImageFix" result="shape"/>
<feGaussianBlur stdDeviation="3" result="effect1_foregroundBlur_3_182"/>
</filter>
<filter id="filter2_d_3_182" x="13" y="11" width="206" height="74" filterUnits="userSpaceOnUse" color-interpolation-filters="sRGB">
<feFlood flood-opacity="0" result="BackgroundImageFix"/>
<feColorMatrix in="SourceAlpha" type="matrix" values="0 0 0 0 0 0 0 0 0 0 0 0 0 0 0 0 0 0 127 0" result="hardAlpha"/>
<feOffset dx="10" dy="10"/>
<feGaussianBlur stdDeviation="5"/>
<feComposite in2="hardAlpha" operator="out"/>
<feColorMatrix type="matrix" values="0 0 0 0 0 0 0 0 0 0 0 0 0 0 0 0 0 0 0.08 0"/>
<feBlend mode="normal" in2="BackgroundImageFix" result="effect1_dropShadow_3_182"/>
<feBlend mode="normal" in="SourceGraphic" in2="effect1_dropShadow_3_182" result="shape"/>
</filter>
</defs>
</svg>
